<svg xmlns="http://www.w3.org/2000/svg" width="1000" height="1036.66">
  <path d="M401.455 188.831c83.256 0 145.202 30.899 189.898 68.808 10.053 7.484 16.864 6.897 24.636 0L810.652 98.632l-66-55-131.998-33-121 33-87.999 77-11 55z" fill="#ffb901"/>
  <path d="M168.647 405.031c0 168.889 144.61 334.406 324.416 334.406 43.216 0 65.668-9.144 81.213-13.64 18.273-4.973 24.206-9.046 36.125-19.293l184.851-150.276-15.4-8.8-98.505 17.45-134.094-32.086-118.77-113.501L378.2 262.209l34.48-151.814 52.92-55.313-6.944-7.05L257.54 212.262c-20.855 16.73-38.185 35.615-50.102 55.937-20.665 34.848-38.154 72.58-38.791 136.833z" fill="#ff5e03"/>
  <path d="M688.854 578.492c37.516 0 59.73-5.471 89.595-15.16 8.665-2.614 13.65-4.606 16.803-7.104.876-.694 1.845-1.778 2.427-2.5 2.12-2.626 2.487-5.486 2.487-8.962 0-7.22-8.18-14.994-14.819-14.994-9.75 0-41.365 21.04-97.686 21.04-162.623 0-293.569-151.104-293.569-300.978 0-116.867 82.185-221.945 215.301-221.945 59 0 126.682 23.04 181.396 69.482 7.672 6.24 15.608 5.456 19.863 1.261 2.062-2.033 3.131-5.177 3.131-8.118 0-9.589-18.52-22.76-32.737-33.038C747.976 33.596 684.056 0 607.704 0 551.31 0 499.51 16.725 458.655 48.033c-55.865 42.811-91.39 112.618-91.39 201.716 0 164.092 143.933 328.743 321.589 328.743z" fill="#ffffff"/>
  <path d="M99.433 1036.66C42.148 1036.66 0 1000.095 0 938.948c0-58.117 40.994-96.44 99.49-96.44 28.19 0 51.161 12.392 62.53 27.024l-31.29 25.665c-7.868-8.727-18.768-15.073-35.301-15.073-30.389 0-53.147 24.939-53.147 59.411 0 33.434 22.511 59.59 51.989 59.59 19.715 0 30.28-8.892 38.286-19.918l33.962 25.501c-11.798 17.289-34.97 31.952-67.086 31.952zM241.854 901.957c-42.326 0-70.65 28.082-70.65 66.654 0 42.318 32.76 66.54 70.569 66.54 35.871 0 70.242-23.577 70.242-66.573 0-40.858-31.422-66.62-70.16-66.62zm-.31 34.502c21.029 0 31.419 14.114 31.419 31.89 0 21.007-12.81 32.414-31.614 32.414-15.44 0-30.929-8.959-30.929-32.136 0-15.993 8.739-32.168 31.124-32.168zM329.663 1031.995V905.148h37.584v17.748c5.877-9.339 16.109-20.864 37.46-20.864 20.954 0 32.877 8.893 39.183 22.968 7.21-14.091 19.134-22.997 40.143-22.997 35.97 0 45.035 25.475 45.035 54.302v75.69h-39.045v-74.124c0-10.982-3.328-21.449-18.39-21.449-13.457 0-22.849 8.77-22.849 26.668v68.905h-39.046v-72.558c0-15.752-6.966-23.06-18.248-23.06-16.663 0-22.573 11.643-22.573 30.368v65.25zM568.82 1031.995v-95.527h-25.84v-31.32h25.84v-24.012c0-28.148 9.403-49.607 49.59-49.607 14.233 0 23.066 2.626 23.066 2.626l-1.929 32.966s-6.318-2.676-12.965-2.676c-13.7 0-18.612 5.158-18.612 20.867v19.836h28.97v31.32h-28.97v95.527zM802.713 1031.995V905.148h39.15v20.88c7.824-12.452 15.62-23.996 37.34-23.996 5.636-.02 12.773 1.387 12.773 1.387v35.66s-8.638-2.61-17.03-2.61c-27.051 0-33.082 13.986-33.082 41.76v53.766zM901.341 936.468v-31.32h25.056v-37.584h39.15v37.584H1000v31.32h-34.452v45.154c0 11.811 2 20.618 19.724 20.618 10.65 0 14.728-3.653 14.728-3.653v32.595s-10.126 3.961-27.748 3.961c-26.624 0-45.855-11.575-45.855-37.687v-60.988zM714.073 901.957c-42.326 0-70.65 28.082-70.65 66.654 0 42.318 32.76 66.54 70.569 66.54 35.871 0 70.242-23.577 70.242-66.573 0-40.858-31.423-66.62-70.16-66.62zm-.31 34.502c21.029 0 31.418 14.114 31.418 31.89 0 21.007-12.81 32.414-31.614 32.414-15.44 0-30.928-8.959-30.928-32.136 0-15.993 8.739-32.168 31.124-32.168z" fill="#011460"/>
</svg>
