
<svg xmlns="https://www.w3.org/2000/svg" fill='#333' viewBox="0 0 86 50">
  <style>
    .st0{display:none}.st1{display:inline}
  </style>
  <g id="Layer_1" class="st0">
    <path class="st1" d="M46.1 45c0-.9-.3-1.6-.9-2.2-.6-.6-1.3-.9-2.2-.9s-1.6.3-2.2.9c-.6.6-.9 1.3-.9 2.2s.3 1.6.9 2.2c.6.6 1.3.9 2.2.9s1.6-.3 2.2-.9c.6-.6.9-1.3.9-2.2zm8.1-6.2V11.2c0-.3-.1-.6-.4-.9s-.5-.3-.8-.3H33c-.3 0-.6.1-.9.4s-.4.5-.4.9v27.5c0 .3.1.6.4.9.2.2.5.4.9.4h20c.3 0 .6-.1.9-.4.2-.3.3-.6.3-.9zM46.8 5.6c0-.4-.2-.6-.6-.6H40c-.4 0-.6.2-.6.6s.2.6.6.6h6.2c.3 0 .6-.2.6-.6zM58 5v40c0 1.4-.5 2.5-1.5 3.5S54.3 50 53 50H33c-1.4 0-2.5-.5-3.5-1.5S28 46.3 28 45V5c0-1.4.5-2.5 1.5-3.5S31.7 0 33 0h20c1.4 0 2.5.5 3.5 1.5S58 3.6 58 5z"/>
  </g>
  <g id="Layer_3" class="st0">
    <g id="layer1" class="st1">
      <path d="M67.7 0H17.8C14.1 0 11 3 11 6.6v36.7c0 3.6 3.1 6.7 6.8 6.7h49.8c3.7 0 7.3-3 7.3-6.7V6.6C75 3 71.4 0 67.7 0zm.3 43H18V7h50v36z"/>
      <path id="path4000" d="M16.1 6.9l23.3 23c1.9 2 3.1 2 5.1.1l25-23.7" fill="none" stroke="#333" stroke-width="4" stroke-linecap="round" stroke-linejoin="round"/>
    </g>
  </g>
  <path d="M68 2.8C68 1.2 66.8 0 65.2 0H20.8C19.2 0 18 1.2 18 2.8v44.5c0 1.5 1.2 2.8 2.8 2.8h44.5c1.5 0 2.8-1.2 2.8-2.8V2.8zM54 14.5h-4.1c-3.1 0-3.9 1.5-3.9 3.7V23h7.8l-1 8H46v19h-8V31h-6v-8h6v-5.5c0-6.5 4.2-10 9.9-10 2.8 0 5.1.2 6.1.3v6.7z" id="Layer_2"/>
</svg>
