<svg xmlns="http://www.w3.org/2000/svg" version="1" width="1311.024" height="302.244">
  <path fill="#FFF" d="M177.608 154.038c-30.42 0-53.063-24.18-53.063-53.748 0-29.55 22.643-53.712 53.063-53.712 30.438 0 53.082 24.162 53.082 53.712 0 29.568-22.644 53.748-53.082 53.748m0-118.68c-37.955 0-66.209 29.124-66.209 64.932 0 35.844 28.254 64.968 66.21 64.968 37.991 0 66.263-29.124 66.263-64.968 0-35.808-28.272-64.932-66.264-64.932M347.463 125.785c-4.555 7.535-15.127 26.939-37.789 26.939-17.682 0-28.92-13.387-28.92-32.772v-80.91h-12.942v80.91c0 25.662 15.96 43.788 40.159 43.788 24.772 0 36.215-16.812 39.492-21.366v19.2h12.682V39.043h-12.682v86.742zM418.43 99.882h-13.571V50.244h14.404c19.663 0 29.587 8.017 29.587 23.958 0 19.422-15.979 25.68-30.42 25.68m50.693 53.712c-3.666 0-6.906-2.814-10.35-7.758l-25.457-37.122c14.886-3.666 28.68-14.886 28.68-34.308 0-21.57-15.313-35.363-41.4-35.363h-28.55v122.53h12.813v-51.582h14.404l28.068 41.659c4.555 6.665 8.628 12.09 18.997 12.09 10.35 0 14.682-7.795 15.737-9.498l-4.74-4.74c-1.555 1.703-4.073 4.092-8.202 4.092M35.433 161.574h12.701V105.27h42.084V94.032H48.134V50.448H99.94V39.043H35.433v122.53zM841.752 154.038c-30.42 0-53.1-24.18-53.1-53.748 0-29.55 22.68-53.712 53.1-53.712s53.063 24.162 53.063 53.712c0 29.568-22.643 53.748-53.063 53.748m0-118.68c-38.01 0-66.246 29.124-66.246 64.932 0 35.844 28.235 64.968 66.246 64.968 37.955 0 66.227-29.124 66.227-64.968 0-35.808-28.272-64.932-66.227-64.932M924.31 241.595h19.588v-4.37H924.31v-17.348h21.755v-4.407h-26.457v50.583h27.716v-4.351H924.31v-20.107zM891.242 237.466h-26.754V215.47h-4.629v50.583h4.63v-24.18h26.753v24.18h4.703V215.47h-4.703v21.996zM972.485 219.877h8.146c5.277 0 11.48 2.61 11.48 9.98 0 7.738-6.314 10.46-12.22 10.46h-7.406v-20.44zm7.406 24.791c10.053 0 17.07-6.091 17.07-14.812 0-8.331-6.85-14.386-16.33-14.386h-12.849v50.583h4.703v-22.07c2.573 2.851 19.755 22.07 19.755 22.07h6.147s-16.811-18.904-18.922-21.385h.426zM1025.845 242.928c.629-1.796 5.665-15.923 6.869-19.33 1.24 3.407 6.276 17.534 6.906 19.33h-13.775zm5.461-28.235l-18.755 51.36h5.036s6.295-17.7 6.684-18.756h16.922c.352 1.055 6.647 18.756 6.647 18.756h5.036l-18.663-51.36h-2.907z"/>
  <path d="M640.978 159.648l-53.952-54.008s-42.38 63.525 53.952 54.008" fill="#d0df71"/>
  <path d="M522.853 159.685l53.99-53.97s-63.506-42.38-53.99 53.97" fill="#b83a3a"/>
  <path d="M586.97 95.457s63.506 42.4 53.97-53.952l-53.97 53.952z" fill="#004660"/>
  <path fill="#FFF" d="M827.662 238.095l-.444-.259c-5.388-2.814-9.961-5.184-9.961-10.572 0-5.536 4.24-8.11 8.239-8.11 3.629 0 6.499.723 9.48 4.166l.555.611 3.555-3.073-.574-.611c-3.388-3.888-7.406-5.554-13.016-5.554-7.461 0-13.053 5.369-13.053 12.571 0 8.147 6.295 11.442 11.887 14.386 5.72 3.018 10.868 5.684 10.868 12.053 0 4.925-4.185 8.684-9.702 8.684-3.703 0-7.313-1.5-10.405-4.222l-.63-.537-3.036 3.352.592.573c3.5 3.352 8.554 5.333 13.479 5.333 7.998 0 14.516-5.999 14.516-13.312 0-8.999-6.85-12.609-12.35-15.479M702.799 50.244h16.83c18.533 0 28.253 7.776 28.253 23.088 0 18.57-15.312 24.81-29.124 24.81h-15.96V50.244zm0 58.248h18.107c18.996 0 40.159-10.572 40.159-34.938 0-21.107-14.942-34.511-40.548-34.511H690.06v122.53H702.8v-53.081zM752.844 237.595c-1.315-1.833-15.312-22.125-15.312-22.125h-5.499s17.978 26.217 18.293 26.643v23.94h4.703v-23.866c.314-.5 18.515-26.717 18.515-26.717h-5.5l-15.2 22.125M705.224 261.702H695.17v-20.015h9.517c4.943 0 13.442 2.148 13.442 9.998 0 9.017-8.998 10.017-12.905 10.017m-10.054-41.825h7.517c5.222 0 11.369 1.388 11.369 8.35 0 6.258-5.462 9.09-10.813 9.09h-8.073v-17.44zm17.108 19.051c4.166-2.184 6.61-5.961 6.61-10.701 0-7.85-6.203-12.757-16.2-12.757h-12.22v50.583h14.756c11.127 0 17.737-5.351 17.737-14.368 0-8.11-5.98-11.609-10.683-12.757M1061.541 219.877h12.498v46.176h4.665v-46.176h12.46v-4.407h-29.623v4.407zM1124.954 262.387c-11.516 0-20.2-9.313-20.2-21.626 0-12.293 8.684-21.606 20.2-21.606 11.46 0 20.033 9.313 20.033 21.606 0 12.313-8.572 21.626-20.033 21.626m0-47.694c-14.034 0-24.995 11.442-24.995 26.068 0 14.646 10.961 26.125 24.995 26.125 13.979 0 24.903-11.516 24.903-26.162 0-14.608-10.924-26.031-24.903-26.031M1197.31 39.043h-99.017v11.201h43.12v111.33h12.758V50.244h43.139V39.043zM1199.81 257.536s0 .537.018.777c-2.925-4.184-30.142-42.843-30.142-42.843h-4.944v50.583h4.63V223.82s-.02-.574-.02-.814c2.907 4.184 30.383 43.047 30.383 43.047h4.777V215.47h-4.703v42.066zM1253.188 100.29l-17.923-11.868c-8.405-5.61-17.015-11.85-17.015-21.996 0-11.423 8.85-19.607 22.18-19.607 10.832 0 21.367 4.962 28.05 8.813V42.69c-5.572-2.796-15.089-7.128-28.05-7.128-19.366 0-34.714 11.016-34.714 31.938 0 15.57 11.22 24.606 20.496 30.642l18.774 12.312c7.535 4.962 17.7 12.942 17.7 22.866 0 12.738-11.202 20.274-25.458 20.274-12.942 0-27.606-8.184-33.05-11.424v14.034c9.943 5.37 21.59 8.813 33.05 8.813 22.144 0 38.363-12.293 38.363-32.141 0-17.034-13.331-26.55-22.403-32.586M946.86 39.043h-12.775v122.53h12.775V39.044z"/>
  <path d="M522.816 41.542l53.952 53.99s42.38-63.506-53.952-53.99" fill="#76b9bb"/>
  <path fill="#FFF" d="M992.555 61.26l74.874 74.874v25.44h12.72V39.043h-12.72v79.817l-79.855-79.817h-7.739v122.53h12.72V61.262z"/>
</svg>
