<svg class="NSTLogo" xmlns="http://www.w3.org/2000/svg" width="150" height="150" viewBox="0 0 150 150">
  <g stroke="#000" stroke-miterlimit="10">
    <path fill="#FFF" stroke-width="2" d="M145 76c0 38.7-31.3 70-70 70S5 114.6 5 76 36.3 6 75 6s70 31.3 70 70z"/>
    <path stroke-width="3" d="M75 147.5c-39.4 0-71.5-32.1-71.5-71.5S35.6 4.5 75 4.5s71.5 32.1 71.5 71.5-32.1 71.5-71.5 71.5zm0-140C37.2 7.5 6.5 38.2 6.5 76s30.7 68.5 68.5 68.5 68.5-30.7 68.5-68.5S112.8 7.5 75 7.5z"/>
  </g>
  <g fill="#050000">
    <path d="M44.538 29.002l10.99 21.773 2.873 5.742c-.194-5.875-.29-8.914-.29-9.117V29.002h3.216v32.695H57.71L47.074 40.72c-.3-.593-.87-1.858-1.7-3.796l-1.277-2.883c-.053.657-.08 1.04-.08 1.15l.133 2.53.026 3.633-.08 1.406v18.937H40.88V29.002h3.658zM66.324 55.416c1.896 1.36 3.434 2.293 4.613 2.8s2.38.763 3.603.763c1.932 0 3.656-.61 5.172-1.83s2.273-2.804 2.273-4.757c0-1.47-.497-2.695-1.49-3.68-1.01-.97-2.934-1.922-5.77-2.86-5.618-1.874-8.427-4.718-8.427-8.53 0-2.453.997-4.543 2.99-6.27 1.995-1.727 4.383-2.59 7.166-2.59 2.287 0 4.645.75 7.072 2.25v4.242c-1.54-1.266-2.813-2.133-3.814-2.602-1.002-.47-2.06-.703-3.178-.703-1.86 0-3.408.562-4.64 1.688-1.23 1.125-1.847 2.43-1.847 3.914 0 1.5.554 2.684 1.662 3.55s3.114 1.826 6.02 2.874c1.754.626 3.168 1.26 4.24 1.9 1.073.64 1.97 1.546 2.687 2.718.718 1.172 1.077 2.507 1.077 4.007 0 2.797-1.1 5.148-3.297 7.055-2.197 1.905-4.803 2.858-7.816 2.858-2.623 0-5.388-.898-8.294-2.695v-4.102zM88.046 29.002h20.817v2.766h-8.72v29.93h-3.536v-29.93h-8.562v-2.766z"/>
  </g>
  <path d="M27.406 108.11h1.43l.686 2.158c.204.642.36 1.196.47 1.665h.074l-.035-1.152v-2.67h1.348v6.812h-1.425l-.687-2.158c-.205-.64-.36-1.197-.47-1.67h-.08l.036 1.152v2.676h-1.347v-6.812zM32.95 107.998c.187 0 .356.076.51.23.15.152.228.35.228.595 0 .23-.072.427-.218.586s-.32.238-.52.238c-.208 0-.383-.082-.525-.246-.143-.165-.213-.36-.213-.584 0-.23.073-.422.22-.58.146-.16.32-.24.517-.24zm-.696 2.27h1.373v4.654h-1.373v-4.653zM34.885 110.537c.47-.25.914-.376 1.334-.376.31 0 .58.063.813.187.23.124.427.323.585.6s.237.63.237 1.06v1.563c0 .452.082.903.246 1.353H36.73c-.052-.13-.093-.277-.125-.442-.135.183-.277.32-.425.412-.148.092-.304.14-.468.14-.32 0-.605-.146-.857-.433-.25-.29-.377-.64-.377-1.054 0-.932.71-1.5 2.128-1.704-.032-.17-.11-.296-.233-.38-.123-.086-.292-.128-.508-.128-.316 0-.642.146-.976.44v-1.237zm1.72 2.075c-.577.06-.865.302-.865.73 0 .16.043.296.13.407.086.11.188.165.307.165.138 0 .244-.066.317-.2.074-.135.11-.303.11-.505v-.598zM40.822 114.36c-.118.186-.25.325-.393.42-.145.095-.303.142-.476.142-.386 0-.718-.23-.997-.684-.28-.455-.42-1.004-.42-1.646 0-.625.142-1.187.424-1.685.283-.498.645-.747 1.085-.747.167 0 .322.04.466.12.145.08.277.2.398.363l.372-.376h.915v4.468c0 .693-.17 1.277-.51 1.75-.34.475-.82.71-1.445.71-.458 0-.934-.144-1.43-.434v-1.532c.436.384.814.576 1.136.576.25 0 .46-.095.626-.286.167-.19.25-.43.25-.72v-.438zm0-2.67c-.063-.083-.126-.143-.19-.182-.063-.04-.126-.06-.19-.06-.158 0-.283.098-.375.29-.092.195-.138.448-.138.76 0 .32.043.578.133.774.09.197.206.296.35.296.138 0 .24-.075.31-.225.066-.15.1-.372.1-.67v-.984zM43.462 110.537c.47-.25.914-.376 1.334-.376.31 0 .582.063.814.187.23.124.427.323.585.6s.237.63.237 1.06v1.563c0 .452.082.903.246 1.353h-1.373c-.052-.13-.093-.277-.125-.442-.135.183-.277.32-.425.412-.148.092-.304.14-.468.14-.32 0-.605-.146-.857-.433-.25-.29-.377-.64-.377-1.054 0-.932.71-1.5 2.128-1.704-.03-.17-.108-.296-.232-.38-.124-.086-.293-.128-.51-.128-.315 0-.64.146-.975.44v-1.237zm1.718 2.075c-.576.06-.864.302-.864.73 0 .16.043.296.13.407.086.11.188.165.307.165.138 0 .244-.066.317-.2.074-.135.11-.303.11-.505v-.598zM48.64 110.884c.082-.24.185-.42.306-.542s.262-.18.423-.18c.103 0 .214.035.332.106v1.465c-.14-.078-.27-.117-.384-.117-.175 0-.32.08-.436.24-.115.163-.172.368-.172.62v2.445h-1.39v-4.652h1.18l.14.616zM50.624 110.537c.47-.25.914-.376 1.334-.376.31 0 .582.063.814.187.23.124.427.323.585.6s.237.63.237 1.06v1.563c0 .452.082.903.246 1.353h-1.373c-.052-.13-.093-.277-.125-.442-.135.183-.277.32-.425.412-.148.092-.304.14-.468.14-.32 0-.606-.146-.858-.433-.25-.29-.377-.64-.377-1.054 0-.932.71-1.5 2.128-1.704-.032-.17-.11-.296-.233-.38-.124-.086-.293-.128-.51-.128-.315 0-.64.146-.975.44v-1.237zm1.718 2.075c-.576.06-.864.302-.864.73 0 .16.043.296.13.407.086.11.188.165.307.165.138 0 .244-.066.317-.2.074-.135.11-.303.11-.505v-.598zM56.49 112.886c.464.488.902.732 1.313.732.21 0 .39-.077.54-.23.15-.15.225-.337.225-.556 0-.176-.054-.332-.16-.47-.11-.136-.313-.29-.612-.46-.422-.236-.745-.498-.967-.787-.226-.29-.338-.657-.338-1.104 0-.563.175-1.04.526-1.43s.816-.583 1.395-.583c.397 0 .81.12 1.24.36v1.627c-.38-.413-.745-.62-1.093-.62-.173 0-.322.06-.45.176-.125.117-.19.26-.19.425 0 .163.053.303.157.42.1.117.288.244.56.38.453.23.795.49 1.028.783.233.295.35.694.35 1.195 0 .632-.2 1.17-.603 1.616s-.892.668-1.47.668c-.45 0-.932-.152-1.45-.46v-1.682zM61.987 110.79c.124-.21.263-.368.417-.473s.325-.156.512-.156c.435 0 .78.234 1.04.7.26.47.39 1.022.39 1.664 0 .47-.066.892-.2 1.267-.13.378-.312.678-.54.902-.23.225-.49.337-.78.337-.138 0-.272-.034-.404-.1-.13-.063-.258-.16-.382-.29v2.45h-1.355v-6.822h1.17l.132.523zm.052 2.657c.05.084.108.148.172.193.063.043.132.065.207.065.163 0 .29-.1.383-.304.092-.2.138-.477.138-.825 0-.355-.043-.63-.13-.818-.09-.188-.205-.283-.35-.283-.14 0-.246.07-.316.208-.07.14-.106.35-.106.63v1.135zM66.736 110.16c.567 0 1.032.213 1.395.636.364.423.545 1.016.545 1.777 0 .723-.174 1.312-.522 1.77-.35.458-.822.687-1.42.687-.6 0-1.065-.227-1.4-.68s-.5-1.027-.5-1.728c0-.73.175-1.32.524-1.777.35-.456.81-.684 1.38-.684zm.014 1.193c-.17 0-.298.104-.384.31-.086.207-.13.518-.13.93 0 .408.043.714.128.92.084.204.212.307.382.307.173 0 .302-.102.387-.305.084-.204.127-.51.127-.916 0-.417-.042-.73-.127-.937-.086-.207-.214-.31-.383-.31zM71.01 110.884c.082-.24.185-.42.306-.542s.262-.18.423-.18c.103 0 .214.035.332.106v1.465c-.14-.078-.27-.117-.384-.117-.175 0-.32.08-.436.24-.115.163-.172.368-.172.62v2.445h-1.39v-4.652h1.183l.136.616zM73.42 108.867h1.14v1.4h.68v1.14h-.62v1.903c0 .293.103.44.31.44.1 0 .204-.045.31-.133v1.26c-.252.1-.51.15-.77.15-.427 0-.74-.114-.94-.343-.2-.23-.3-.586-.3-1.067v-2.212h-.505v-1.138h.583l.11-1.4zM75.755 113.208c.44.41.82.615 1.144.615.123 0 .23-.036.32-.11.088-.072.132-.17.132-.29 0-.09-.035-.17-.105-.23-.07-.065-.2-.14-.395-.224-.46-.202-.76-.423-.895-.66-.135-.237-.202-.474-.202-.708 0-.434.157-.78.473-1.045s.698-.396 1.15-.396c.392 0 .778.102 1.16.304v1.382c-.317-.312-.624-.47-.918-.47-.133 0-.23.025-.298.074s-.1.124-.1.225c0 .137.143.257.428.36.773.29 1.16.754 1.16 1.393 0 .45-.158.828-.477 1.138-.317.31-.727.464-1.23.464-.42 0-.87-.135-1.35-.405v-1.417z"/>
  <g>
    <path d="M81.77 108.11h3.804v1.382h-1.22v5.43h-1.405v-5.43h-1.18v-1.382z"/>
  </g>
  <g>
    <path d="M87.592 110.16c.566 0 1.03.213 1.395.636.362.423.544 1.016.544 1.777 0 .723-.174 1.312-.52 1.77-.35.458-.823.687-1.42.687-.6 0-1.066-.227-1.4-.68s-.5-1.027-.5-1.728c0-.73.174-1.32.523-1.777.35-.456.808-.684 1.38-.684zm.012 1.193c-.17 0-.298.104-.384.31-.087.207-.13.518-.13.93 0 .408.042.714.128.92.084.204.21.307.38.307.175 0 .304-.102.388-.305.085-.204.127-.51.127-.916 0-.417-.042-.73-.127-.937-.084-.207-.212-.31-.382-.31zM90.213 110.27h1.363v2.88c0 .176.023.31.067.397.044.09.11.135.196.135.1 0 .185-.05.252-.154.067-.102.102-.23.102-.378v-2.88h1.39v4.652H92.4l-.13-.464c-.134.188-.278.33-.433.427-.154.097-.318.145-.494.145-.328 0-.6-.15-.812-.454-.212-.303-.317-.68-.317-1.128v-3.18z"/>
  </g>
  <g>
    <path d="M95.855 110.884c.083-.24.186-.42.307-.542s.262-.18.422-.18c.104 0 .215.035.333.106v1.465c-.142-.078-.27-.117-.384-.117-.176 0-.32.08-.437.24-.115.163-.173.368-.173.62v2.445h-1.39v-4.652h1.183l.14.616z"/>
  </g>
  <g>
    <path d="M98.954 110.752c.12-.2.26-.347.413-.444s.326-.146.518-.146c.325 0 .598.134.814.403.218.268.326.603.326 1.003v3.354h-1.373v-3.032c0-.264-.086-.396-.26-.396-.12 0-.216.072-.288.215s-.108.343-.108.6v2.612h-1.355v-4.653h1.18l.132.482zM102.076 110.537c.47-.25.913-.376 1.334-.376.31 0 .582.063.813.187s.427.323.585.6.237.63.237 1.06v1.563c0 .452.082.903.246 1.353h-1.372c-.052-.13-.093-.277-.125-.442-.136.183-.277.32-.425.412-.148.092-.305.14-.47.14-.32 0-.604-.146-.856-.433-.252-.29-.377-.64-.377-1.054 0-.932.71-1.5 2.128-1.704-.032-.17-.11-.296-.233-.38-.123-.086-.293-.128-.51-.128-.316 0-.64.146-.975.44v-1.237zm1.718 2.075c-.575.06-.864.302-.864.73 0 .16.044.296.13.407.087.11.19.165.308.165.137 0 .243-.066.316-.2.074-.135.11-.303.11-.505v-.598zM109.044 110.913c.13-.25.28-.438.454-.563.173-.126.37-.188.588-.188.355 0 .64.15.853.446.213.3.32.682.32 1.15v3.164h-1.374v-2.86c0-.366-.093-.548-.276-.548-.127 0-.222.067-.285.203-.062.135-.095.34-.095.612v2.592h-1.36v-2.86c0-.366-.09-.548-.27-.548-.113 0-.204.07-.272.207-.07.14-.104.312-.104.517v2.686h-1.35v-4.653h1.155l.15.503c.12-.205.26-.357.415-.46.154-.1.33-.15.52-.15.418-.002.727.25.93.75zM115.382 114.526c-.527.335-1.02.503-1.474.503-.594 0-1.076-.228-1.446-.68s-.556-1.032-.556-1.738c0-.684.176-1.263.525-1.738s.818-.713 1.403-.713c.52 0 .934.205 1.245.61s.467.953.467 1.637v.386h-2.215c.063.312.17.547.325.703.152.156.35.234.592.234.188 0 .36-.047.516-.142.155-.095.36-.264.618-.508v1.446zm-1.036-2.558v-.156c0-.212-.05-.392-.147-.542s-.223-.225-.37-.225c-.173 0-.306.076-.4.23-.094.152-.147.383-.163.692h1.08zM117.558 110.752c.12-.2.26-.347.413-.444s.327-.146.52-.146c.324 0 .597.134.813.403.22.268.327.603.327 1.003v3.354h-1.373v-3.032c0-.264-.086-.396-.26-.396-.12 0-.216.072-.288.215s-.11.343-.11.6v2.612h-1.354v-4.653h1.18l.132.482zM120.84 108.867h1.14v1.4h.68v1.14h-.62v1.903c0 .293.104.44.31.44.103 0 .206-.045.312-.133v1.26c-.253.1-.51.15-.77.15-.428 0-.74-.114-.94-.343-.2-.23-.3-.586-.3-1.067v-2.212h-.506v-1.138h.583l.11-1.4zM123.175 113.208c.44.41.82.615 1.144.615.123 0 .23-.036.32-.11.088-.072.132-.17.132-.29 0-.09-.035-.17-.105-.23-.07-.065-.2-.14-.395-.224-.46-.202-.76-.423-.895-.66-.135-.237-.202-.474-.202-.708 0-.434.157-.78.473-1.045s.698-.396 1.15-.396c.392 0 .778.102 1.16.304v1.382c-.317-.312-.624-.47-.918-.47-.133 0-.23.025-.298.074s-.1.124-.1.225c0 .137.143.257.428.36.773.29 1.16.754 1.16 1.393 0 .45-.158.828-.477 1.138-.317.31-.727.464-1.23.464-.42 0-.87-.135-1.35-.405v-1.417z"/>
  </g>
  <g>
    <path d="M99 82.9h-7.6c-.4 0-.8.3-.8.6v2.1c0 .8.8 1.4 1.8 1.4H98c1 0 1.8-.6 1.8-1.4v-2.1c0-.3-.4-.6-.8-.6zm-7.1 2.6h6.5v.7h-6.5v-.7zM71.1 83l1.4-2.3-9.1-14.4c-.2-.3-.7-.5-1.1-.5-.2 0-.4 0-.5.1-.6.2-.9.8-.6 1.3L71.1 83zM97.3 95.6c-.2-.9-1.3-1.4-2.4-1.2l-12.7 1.7-3.6-5.7-2.2-3.5-1.4 2.2 6.7 10.7c.5.8 1.5 1.3 2.6 1.3h.1l9.9-.8c.8 0 1.5-.2 2.1-.6l.5-.3c.6-.3.8-.9.7-1.4l-.3-2.4z"/>
    <path d="M86.4 67.1c.3-.5 0-1.1-.6-1.3-.2-.1-.4-.1-.5-.1-.5 0-.9.2-1.1.5L73.8 82.6l-1.4 2.3-7.1 11.2-12.7-1.7h-.4c-.9 0-1.8.5-1.9 1.3l-.5 2.3c-.1.5.2 1.1.7 1.4l.6.3c.6.4 1.4.6 2.1.6l9.9.8h.1c1.1 0 2.2-.5 2.7-1.3l8-12.7 1.4-2.3 11.1-17.7zM52.1 96.7c.2-.4.7-.6 1.3-.6 2.3.2 7.2.8 7.6.8.3 0-4.9.7-7.7 1-.8.1-1.5-.4-1.4-1.1.2.1.2 0 .2-.1 0 .1 0 0 0 0z"/>
  </g>
</svg>