<svg class="NSTLogo" xmlns="https://www.w3.org/2000/svg" viewBox="0 0 150 150"><g stroke="#000" stroke-miterlimit="10"><path fill="#FFF" stroke-width="2" d="M145 76c0 38.7-31.3 70-70 70S5 114.6 5 76 36.3 6 75 6s70 31.3 70 70z"/><path stroke-width="3" d="M75 147.5c-39.4 0-71.5-32.1-71.5-71.5S35.6 4.5 75 4.5s71.5 32.1 71.5 71.5-32.1 71.5-71.5 71.5zm0-140C37.2 7.5 6.5 38.2 6.5 76s30.7 68.5 68.5 68.5 68.5-30.7 68.5-68.5S112.8 7.5 75 7.5z"/></g><path d="M44.538 29.002l10.99 21.773 2.873 5.742c-.193-5.875-.29-8.914-.29-9.117V29.002h3.217v32.695H57.71L47.074 40.72c-.3-.593-.87-1.858-1.7-3.796l-1.277-2.883c-.053.658-.08 1.04-.08 1.15l.133 2.53.026 3.634-.08 1.406v18.937H40.88V29.002h3.658zm21.786 26.414c1.896 1.36 3.434 2.293 4.613 2.8s2.38.763 3.603.763c1.932 0 3.656-.61 5.172-1.83s2.273-2.805 2.273-4.758c0-1.47-.497-2.695-1.49-3.68-1.01-.97-2.934-1.922-5.77-2.86-5.618-1.874-8.427-4.718-8.427-8.53 0-2.453.997-4.543 2.99-6.27 1.995-1.727 4.383-2.59 7.166-2.59 2.287 0 4.645.75 7.072 2.25v4.242c-1.54-1.266-2.813-2.133-3.814-2.602-1.002-.47-2.06-.703-3.178-.703-1.86 0-3.408.56-4.64 1.687-1.23 1.125-1.847 2.43-1.847 3.914 0 1.5.554 2.685 1.662 3.55s3.113 1.827 6.02 2.875c1.753.626 3.167 1.26 4.24 1.9 1.072.64 1.97 1.546 2.686 2.718.718 1.172 1.077 2.507 1.077 4.007 0 2.797-1.1 5.148-3.297 7.055-2.197 1.905-4.803 2.858-7.816 2.858-2.623 0-5.388-.898-8.294-2.695v-4.102zm21.722-26.414h20.817v2.766h-8.72v29.93h-3.536v-29.93h-8.562v-2.766z" fill="#050000"/><path d="M27.406 108.11h1.43l.686 2.158c.204.642.36 1.196.47 1.665h.074l-.035-1.152v-2.67h1.35v6.813h-1.426l-.687-2.158c-.205-.64-.36-1.197-.47-1.67h-.08l.036 1.152v2.676h-1.347v-6.812zm5.544-.112c.187 0 .356.076.51.23.15.152.228.35.228.595 0 .23-.072.427-.218.586s-.32.237-.52.237c-.208 0-.383-.082-.525-.246-.143-.164-.213-.36-.213-.583 0-.23.073-.422.22-.58.146-.16.32-.24.517-.24zm-.696 2.27h1.373v4.654h-1.373v-4.653zm2.63.27c.47-.25.915-.377 1.335-.377.31 0 .58.064.812.188.23.124.427.323.585.6s.237.63.237 1.06v1.563c0 .453.082.904.246 1.354h-1.37c-.052-.13-.093-.277-.125-.442-.135.183-.277.32-.425.412-.148.092-.304.14-.468.14-.32 0-.605-.146-.857-.433-.25-.29-.377-.64-.377-1.053 0-.932.71-1.5 2.128-1.704-.032-.17-.11-.296-.233-.38-.123-.086-.292-.128-.508-.128-.316 0-.642.146-.976.44v-1.237zm1.72 2.074c-.576.06-.864.302-.864.73 0 .16.043.296.13.407.086.11.188.164.307.164.138 0 .244-.066.317-.2.074-.135.11-.303.11-.505v-.6zm4.218 1.748c-.118.186-.25.325-.393.42-.146.095-.304.142-.477.142-.386 0-.718-.23-.997-.684-.28-.455-.42-1.004-.42-1.646 0-.625.142-1.187.424-1.685.283-.498.645-.747 1.085-.747.167 0 .322.04.466.12.146.08.278.2.4.363l.37-.376h.916v4.468c0 .693-.17 1.277-.51 1.75-.34.475-.82.71-1.445.71-.457 0-.933-.144-1.43-.434v-1.53c.437.383.815.575 1.137.575.25 0 .46-.095.626-.286.167-.19.25-.43.25-.72v-.44zm0-2.67c-.063-.083-.126-.143-.19-.182-.063-.04-.126-.06-.19-.06-.158 0-.283.098-.375.29-.092.195-.138.448-.138.76 0 .32.042.578.132.774.09.197.206.296.35.296.138 0 .24-.075.31-.225.066-.15.1-.372.1-.67v-.984zm2.64-1.153c.47-.25.914-.376 1.334-.376.31 0 .582.064.814.188.23.124.427.323.585.6s.237.63.237 1.06v1.563c0 .453.082.904.246 1.354h-1.373c-.052-.13-.093-.277-.125-.442-.135.183-.277.32-.425.412-.148.092-.304.14-.468.14-.32 0-.605-.146-.857-.433-.25-.29-.377-.64-.377-1.053 0-.932.71-1.5 2.128-1.704-.03-.17-.107-.296-.23-.38-.125-.086-.294-.128-.51-.128-.316 0-.64.146-.976.44v-1.237zm1.718 2.075c-.576.06-.864.302-.864.73 0 .16.043.296.13.407.086.11.188.164.307.164.138 0 .244-.066.317-.2.074-.135.11-.303.11-.505v-.6zm3.46-1.728c.082-.24.185-.42.306-.542s.262-.18.423-.18c.102 0 .213.035.33.106v1.465c-.14-.078-.27-.117-.383-.117-.175 0-.32.08-.436.24-.114.163-.17.368-.17.62v2.445h-1.39v-4.65h1.18l.14.615zm1.984-.347c.47-.25.914-.376 1.334-.376.31 0 .582.064.814.188.23.124.427.323.585.6s.237.63.237 1.06v1.563c0 .453.082.904.246 1.354h-1.373c-.052-.13-.093-.277-.125-.442-.135.183-.277.32-.425.412-.148.092-.304.14-.468.14-.32 0-.607-.146-.86-.433-.25-.29-.376-.64-.376-1.053 0-.932.71-1.5 2.128-1.704-.032-.17-.11-.296-.233-.38-.125-.086-.294-.128-.51-.128-.316 0-.64.146-.976.44v-1.237zm1.718 2.075c-.576.06-.864.302-.864.73 0 .16.043.296.13.407.086.11.188.164.307.164.138 0 .244-.066.317-.2.074-.135.11-.303.11-.505v-.6zm4.148.274c.464.488.902.732 1.313.732.21 0 .39-.077.54-.23.15-.15.225-.337.225-.556 0-.176-.054-.332-.16-.47-.11-.136-.313-.29-.612-.46-.422-.236-.745-.498-.967-.787-.227-.29-.34-.657-.34-1.104 0-.562.176-1.04.527-1.43s.816-.582 1.395-.582c.397 0 .81.12 1.24.36v1.627c-.38-.413-.745-.62-1.093-.62-.174 0-.323.06-.45.176-.126.118-.19.26-.19.426 0 .163.052.303.156.42.1.117.288.244.56.38.453.23.795.49 1.028.783.233.294.35.693.35 1.194 0 .632-.2 1.17-.603 1.616s-.89.668-1.47.668c-.45 0-.93-.152-1.45-.46v-1.682zm5.497-2.096c.124-.21.263-.368.417-.473s.325-.156.512-.156c.435 0 .78.235 1.04.7.26.47.39 1.023.39 1.665 0 .47-.066.892-.2 1.267-.13.378-.312.678-.54.902-.23.225-.49.337-.78.337-.138 0-.272-.033-.404-.1-.13-.062-.258-.16-.382-.29v2.45h-1.355v-6.82h1.17l.132.522zm.052 2.657c.05.084.107.148.17.193.064.043.133.065.208.065.163 0 .29-.1.383-.304.093-.2.14-.476.14-.824 0-.355-.044-.63-.13-.818-.09-.188-.206-.283-.35-.283-.14 0-.247.07-.317.208-.07.14-.106.35-.106.63v1.135zm4.696-3.287c.567 0 1.032.213 1.395.636.365.423.546 1.016.546 1.777 0 .723-.174 1.312-.522 1.77-.35.458-.822.687-1.42.687-.6 0-1.065-.227-1.4-.68s-.5-1.027-.5-1.728c0-.73.175-1.32.524-1.777.35-.456.81-.684 1.38-.684zm.014 1.193c-.17 0-.298.104-.384.31-.086.207-.13.518-.13.93 0 .408.043.714.128.92.084.204.212.307.382.307.173 0 .302-.102.387-.305.084-.204.127-.51.127-.916 0-.418-.042-.73-.127-.938-.086-.207-.214-.31-.383-.31zm4.26-.47c.082-.24.185-.42.306-.54s.262-.18.423-.18c.102 0 .213.034.33.105v1.465c-.14-.078-.27-.117-.383-.117-.175 0-.32.08-.436.24-.114.163-.17.368-.17.62v2.445h-1.39v-4.65h1.182l.136.615zm2.41-2.016h1.14v1.4h.68v1.14h-.62v1.903c0 .293.103.44.31.44.1 0 .204-.045.31-.133v1.26c-.252.1-.51.15-.77.15-.427 0-.74-.114-.94-.343-.2-.23-.3-.586-.3-1.067v-2.212h-.505v-1.138h.583l.11-1.4zm2.335 4.34c.44.41.82.616 1.144.616.122 0 .23-.036.32-.11.087-.072.13-.17.13-.29 0-.09-.034-.17-.104-.23-.07-.065-.2-.14-.395-.224-.46-.203-.76-.424-.894-.66-.135-.238-.202-.475-.202-.71 0-.433.157-.78.473-1.044s.698-.396 1.15-.396c.392 0 .778.102 1.16.304v1.382c-.317-.312-.624-.47-.918-.47-.134 0-.23.025-.3.074s-.1.124-.1.225c0 .137.144.257.43.36.772.29 1.16.754 1.16 1.393 0 .45-.16.828-.478 1.138-.317.31-.727.464-1.23.464-.42 0-.87-.135-1.35-.405v-1.417zM81.77 108.11h3.804v1.382h-1.22v5.43H82.95v-5.43h-1.18v-1.382zM87.592 110.16c.566 0 1.03.213 1.395.636.362.423.544 1.016.544 1.777 0 .723-.173 1.312-.52 1.77-.35.458-.822.687-1.42.687-.6 0-1.065-.227-1.4-.68s-.5-1.027-.5-1.728c0-.73.175-1.32.524-1.777.35-.456.808-.684 1.38-.684zm.012 1.193c-.17 0-.298.104-.384.31-.087.207-.13.518-.13.93 0 .408.042.714.128.92.084.204.21.307.38.307.175 0 .304-.102.388-.305.085-.204.127-.51.127-.916 0-.418-.042-.73-.127-.938-.084-.207-.212-.31-.382-.31zm2.61-1.083h1.362v2.88c0 .176.023.31.067.397.044.09.11.135.196.135.1 0 .184-.05.25-.154.068-.102.103-.23.103-.378v-2.88h1.39v4.652H92.4l-.13-.464c-.134.188-.278.33-.433.427-.154.097-.318.145-.494.145-.328 0-.6-.15-.812-.454-.21-.303-.316-.68-.316-1.128v-3.18zM95.855 110.884c.083-.24.186-.42.307-.542s.262-.18.422-.18c.104 0 .215.035.333.106v1.465c-.142-.078-.27-.117-.384-.117-.176 0-.32.08-.437.24-.115.163-.173.368-.173.62v2.445h-1.39v-4.65h1.183l.14.615zM98.954 110.752c.12-.2.26-.347.413-.444s.326-.146.518-.146c.325 0 .598.134.814.403.217.268.325.603.325 1.003v3.354h-1.373v-3.032c0-.264-.086-.396-.26-.396-.12 0-.216.072-.288.215s-.108.342-.108.6v2.61H97.64v-4.652h1.18l.133.482zm3.122-.215c.47-.25.913-.376 1.334-.376.31 0 .582.064.813.188s.427.323.585.6.237.63.237 1.06v1.563c0 .453.082.904.246 1.354h-1.37c-.053-.13-.094-.277-.126-.442-.136.183-.277.32-.425.412-.15.092-.306.14-.47.14-.32 0-.605-.146-.857-.433-.252-.29-.377-.64-.377-1.053 0-.932.71-1.5 2.128-1.704-.032-.17-.11-.296-.233-.38-.122-.086-.292-.128-.51-.128-.315 0-.64.146-.974.44v-1.237zm1.718 2.075c-.575.06-.864.302-.864.73 0 .16.044.296.13.407.087.11.19.164.308.164.137 0 .243-.066.316-.2.074-.135.11-.303.11-.505v-.6zm5.25-1.7c.13-.25.28-.437.454-.562.173-.126.37-.188.588-.188.355 0 .64.15.853.446.212.3.32.682.32 1.15v3.164h-1.375v-2.86c0-.366-.093-.548-.276-.548-.128 0-.223.067-.286.203-.062.135-.095.34-.095.612v2.59h-1.36v-2.86c0-.365-.09-.547-.27-.547-.114 0-.205.07-.273.207-.07.14-.104.312-.104.517v2.686h-1.35v-4.653h1.155l.15.503c.12-.205.26-.357.415-.46.154-.1.33-.15.52-.15.418-.002.727.25.93.75zm6.338 3.614c-.527.335-1.02.503-1.474.503-.594 0-1.076-.23-1.446-.68s-.556-1.033-.556-1.74c0-.683.176-1.262.525-1.737s.82-.713 1.404-.713c.52 0 .934.205 1.245.61s.466.953.466 1.637v.386h-2.215c.064.312.17.547.326.703.152.156.35.234.592.234.188 0 .36-.047.516-.142.155-.095.36-.264.618-.508v1.446zm-1.036-2.558v-.156c0-.212-.05-.392-.147-.542s-.224-.225-.37-.225c-.174 0-.307.076-.4.23-.095.152-.148.383-.164.692h1.08zm3.212-1.216c.12-.2.26-.347.413-.444s.328-.146.52-.146c.325 0 .598.134.814.403.22.268.327.603.327 1.003v3.354h-1.372v-3.032c0-.264-.086-.396-.26-.396-.12 0-.216.072-.288.215s-.11.342-.11.6v2.61h-1.354v-4.652h1.18l.132.482zm3.282-1.885h1.14v1.4h.68v1.14h-.62v1.903c0 .293.104.44.31.44.103 0 .206-.045.312-.133v1.26c-.253.1-.51.15-.77.15-.428 0-.74-.114-.94-.343-.2-.23-.3-.586-.3-1.067v-2.212h-.506v-1.138h.583l.11-1.4zm2.335 4.34c.44.41.82.616 1.144.616.122 0 .23-.036.32-.11.087-.072.13-.17.13-.29 0-.09-.034-.17-.104-.23-.07-.065-.2-.14-.395-.224-.46-.203-.76-.424-.894-.66-.135-.238-.202-.475-.202-.71 0-.433.157-.78.473-1.044s.698-.396 1.15-.396c.392 0 .778.102 1.16.304v1.382c-.317-.312-.624-.47-.918-.47-.134 0-.23.025-.3.074s-.1.124-.1.225c0 .137.144.257.43.36.772.29 1.16.754 1.16 1.393 0 .45-.16.828-.478 1.138-.317.31-.727.464-1.23.464-.42 0-.87-.135-1.35-.405v-1.417zM99 82.9h-7.6c-.4 0-.8.3-.8.6v2.1c0 .8.8 1.4 1.8 1.4H98c1 0 1.8-.6 1.8-1.4v-2.1c0-.3-.4-.6-.8-.6zm-7.1 2.6h6.5v.7h-6.5v-.7zM71.1 83l1.4-2.3-9.1-14.4c-.2-.3-.7-.5-1.1-.5-.2 0-.4 0-.5.1-.6.2-.9.8-.6 1.3L71.1 83zm26.2 12.6c-.2-.9-1.3-1.4-2.4-1.2l-12.7 1.7-3.6-5.7-2.2-3.5-1.4 2.2 6.7 10.7c.5.8 1.5 1.3 2.6 1.3h.1l9.9-.8c.8 0 1.5-.2 2.1-.6l.5-.3c.6-.3.8-.9.7-1.4l-.3-2.4z"/><path d="M86.4 67.1c.3-.5 0-1.1-.6-1.3-.2-.1-.4-.1-.5-.1-.5 0-.9.2-1.1.5L73.8 82.6l-1.4 2.3-7.1 11.2-12.7-1.7h-.4c-.9 0-1.8.5-1.9 1.3l-.5 2.3c-.1.5.2 1.1.7 1.4l.6.3c.6.4 1.4.6 2.1.6l9.9.8h.1c1.1 0 2.2-.5 2.7-1.3l8-12.7 1.4-2.3 11.1-17.7zM52.1 96.7c.2-.4.7-.6 1.3-.6 2.3.2 7.2.8 7.6.8.3 0-4.9.7-7.7 1-.8.1-1.5-.4-1.4-1.1.2.1.2 0 .2-.1 0 .1 0 0 0 0z"/></svg>