
<svg xmlns="https://www.w3.org/2000/svg" width="64.8" height="64.8">
  <g stroke="#000" stroke-miterlimit="10">
    <path d="M62.7 32.4c0 16.7-13.5 30.3-30.3 30.3S2.1 49.1 2.1 32.4 15.7 2.1 32.4 2.1s30.3 13.6 30.3 30.3z" fill="#fff" stroke-width="2"/>
    <path d="M32.4 63.3c-17 0-30.9-13.9-30.9-30.9S15.4 1.5 32.4 1.5s30.9 13.9 30.9 30.9-13.9 30.9-30.9 30.9zm0-60.5C16.1 2.8 2.8 16.1 2.8 32.4S16.1 62 32.4 62 62 48.7 62 32.4 48.7 2.8 32.4 2.8z" stroke-width="3"/>
  </g>
  <path d="M19.2 12.1l4.7 9.4 1.2 2.5c-.1-2.5-.1-3.9-.1-3.9v-8h1.4v14.1h-1.6l-4.6-9.1c-.1-.3-.4-.8-.7-1.6l-.5-1.2v.5l.1 1.1v10.4h-1.4V12.1h1.5zm9.5 11.4c.8.6 1.5 1 2 1.2.5.2 1 .3 1.6.3.8 0 1.6-.3 2.2-.8.7-.5 1-1.2 1-2.1 0-.6-.2-1.2-.6-1.6-.4-.4-1.3-.8-2.5-1.2-2.4-.8-3.6-2-3.6-3.7 0-1.1.4-2 1.3-2.7.9-.7 1.9-1.1 3.1-1.1 1 0 2 .3 3.1 1v1.8c-.7-.5-1.2-.9-1.6-1.1-.4-.2-.9-.3-1.4-.3-.8 0-1.5.2-2 .7-.5.5-.8 1.1-.8 1.7 0 .6.2 1.2.7 1.5.5.4 1.3.8 2.6 1.2.8.3 1.4.5 1.8.8.5.3.9.7 1.2 1.2.3.5.5 1.1.5 1.7 0 1.2-.5 2.2-1.4 3-.9.8-2.1 1.2-3.4 1.2-1.1 0-2.3-.4-3.6-1.2l-.2-1.5zM38 12.1h9v1.2h-3.8v12.9h-1.5V13.3H38v-1.2z" fill="#050000"/>
  <path d="M11.8 46.3h.6l.3.9c.1.3.2.5.2.7v-1.7h.6v2.9h-.6l-.3-.9c-.1-.3-.2-.5-.2-.7v1.7h-.6v-2.9zm2.4-.1c.1 0 .2 0 .2.1.1.1.1.2.1.3 0 .1 0 .2-.1.3-.1.1-.1.1-.2.1s-.2 0-.2-.1c-.1-.1-.1-.2-.1-.3 0-.1 0-.2.1-.3.1 0 .1-.1.2-.1zm-.3 1h.6v2h-.6v-2zm1.2.1c.2-.1.4-.2.6-.2.1 0 .3 0 .4.1.1.1.2.1.3.3.1.1.1.3.1.5v.7c0 .2 0 .4.1.6H16c0-.1 0-.1-.1-.2l-.2.2c-.1 0-.1.1-.2.1s-.3-.1-.4-.2c-.1-.1-.2-.3-.2-.5 0-.4.3-.6.9-.7 0-.1 0-.1-.1-.2-.1 0-.1-.1-.2-.1s-.3.1-.4.2v-.6zm.7.9c-.2 0-.4.1-.4.3 0 .1 0 .1.1.2l.1.1c.1 0 .1 0 .1-.1v-.2l.1-.3zm1.8.8l-.2.2c-.1 0-.1.1-.2.1-.2 0-.3-.1-.4-.3-.1-.2-.2-.4-.2-.7 0-.3.1-.5.2-.7.1-.2.3-.3.5-.3.1 0 .1 0 .2.1.1 0 .1.1.2.2l.2-.2h.4v1.9c0 .3-.1.6-.2.8-.1.2-.4.3-.6.3-.2 0-.4-.1-.6-.2v-.7c.2.2.4.2.5.2.1 0 .2 0 .3-.1.1-.1.1-.2.1-.3l-.2-.3zm0-1.2c-.1-.1-.1-.1-.2-.1s-.1 0-.2.1c0 .1-.1.2-.1.3 0 .1 0 .2.1.3 0 .1.1.1.2.1s.1 0 .1-.1v-.3l.1-.3zm1.2-.5c.2-.1.4-.2.6-.2.1 0 .3 0 .4.1.1.1.2.1.3.3.1.1.1.3.1.5v.7c0 .2 0 .4.1.6h-.6c0-.1 0-.1-.1-.2l-.2.2c-.1 0-.1.1-.2.1s-.3-.1-.4-.2c-.1-.1-.2-.3-.2-.5 0-.4.3-.6.9-.7 0-.1 0-.1-.1-.2-.1 0-.1-.1-.2-.1s-.3.1-.4.2v-.6zm.7.9c-.2 0-.4.1-.4.3 0 .1 0 .1.1.2l.1.1c.1 0 .1 0 .1-.1v-.2l.1-.3zm1.5-.7c0-.1.1-.2.1-.2.1-.1.1-.1.2-.1h.1v.6c-.1 0-.1-.1-.2-.1s-.1 0-.2.1c0 .1-.1.2-.1.3v1.1h-.6v-2h.5l.2.3zm.9-.2c.2-.1.4-.2.6-.2.1 0 .3 0 .4.1.1.1.2.1.3.3.1.1.1.3.1.5v.7c0 .2 0 .4.1.6h-.6c0-.1 0-.1-.1-.2l-.2.2c-.1 0-.1.1-.2.1s-.3-.1-.4-.2c-.1-.1-.2-.3-.2-.5 0-.4.3-.6.9-.7 0-.1 0-.1-.1-.2-.1 0-.1-.1-.2-.1s-.3.1-.4.2v-.6zm.7.9c-.2 0-.4.1-.4.3 0 .1 0 .1.1.2l.1.1c.1 0 .1 0 .1-.1v-.2l.1-.3zm1.8.1c.2.2.4.3.6.3.1 0 .2 0 .2-.1.1-.1.1-.1.1-.2s0-.1-.1-.2c0-.1-.1-.1-.3-.2-.2-.1-.3-.2-.4-.3-.1-.1-.1-.3-.1-.5s.1-.4.2-.6c.2-.2.4-.3.6-.3.2 0 .4.1.5.2v.7c-.2-.2-.3-.3-.5-.3-.1 0-.1 0-.2.1v.2c0 .1 0 .1.1.2 0 .1.1.1.2.2.2.1.3.2.4.3.1.1.2.3.2.5 0 .3-.1.5-.3.7s-.4.3-.6.3c-.2 0-.4-.1-.6-.2v-.8zm2.4-.9c.1-.1.1-.2.2-.2s.1-.1.2-.1c.2 0 .3.1.4.3.1.2.2.4.2.7 0 .2 0 .4-.1.5-.1.2-.1.3-.2.4-.1.1-.2.1-.3.1H27c-.1 0-.1-.1-.2-.1v1.1h-.6v-2.9h.5l.1.2zm0 1.2c.1.1.1.1.2.1s.1 0 .2-.1c0-.1.1-.2.1-.4s0-.3-.1-.4c0-.1-.1-.1-.2-.1s-.1 0-.1.1v.3l-.1.5zm2-1.4c.2 0 .4.1.6.3.2.2.2.4.2.8 0 .3-.1.6-.2.8-.2.2-.4.3-.6.3-.3 0-.5-.1-.6-.3-.1-.2-.2-.4-.2-.7 0-.3.1-.6.2-.8.2-.3.4-.4.6-.4zm0 .5c-.1 0-.1 0-.2.1 0 .1-.1.2-.1.4s0 .3.1.4c0 .1.1.1.2.1s.1 0 .2-.1c0-.1.1-.2.1-.4s0-.3-.1-.4c0-.1-.1-.1-.2-.1zm1.9-.2c0-.1.1-.2.1-.2.1-.1.1-.1.2-.1h.1v.6c-.1 0-.1-.1-.2-.1s-.1 0-.2.1c0 .1-.1.2-.1.3v1.1H30v-2h.5l.2.3zm1-.9h.5v.6h.3v.5h-.3v.8c0 .1 0 .2.1.2 0 0 .1 0 .1-.1v.5c-.1 0-.2.1-.3.1-.2 0-.3 0-.4-.1-.1-.1-.1-.3-.1-.5v-1h-.2v-.5h.3v-.5zm1 1.9c.2.2.4.3.5.3h.1l.1-.1v-.1s-.1-.1-.2-.1c-.2-.1-.3-.2-.4-.3-.1-.1-.1-.2-.1-.3 0-.2.1-.3.2-.5.1-.1.3-.2.5-.2s.3 0 .5.1v.6c-.1-.1-.3-.2-.4-.2h-.1v.1c0 .1.1.1.2.2.3.1.5.3.5.6 0 .2-.1.4-.2.5-.1.1-.3.2-.5.2s-.4-.1-.6-.2l-.1-.6zm2.6-2.2H37v.6h-.5v2.3h-.6v-2.3h-.5v-.6zm2.5.9c.2 0 .4.1.6.3.2.2.2.4.2.8 0 .3-.1.6-.2.8-.2.2-.4.3-.6.3-.3 0-.5-.1-.6-.3-.1-.2-.2-.4-.2-.7 0-.3.1-.6.2-.8.2-.3.4-.4.6-.4zm0 .5c-.1 0-.1 0-.2.1 0 .1-.1.2-.1.4s0 .3.1.4c0 .1.1.1.2.1s.1 0 .2-.1c0-.1.1-.2.1-.4s0-.3-.1-.4c0-.1-.1-.1-.2-.1zm1.2-.5h.6v1.4s0 .1.1.1c0 0 .1 0 .1-.1v-1.4h.6v2h-.5V49l-.2.2c-.1 0-.1.1-.2.1s-.3-.1-.4-.2c-.1-.2-.1-.3-.1-.5v-1.4zm2.4.3c0-.1.1-.2.1-.2.1-.1.1-.1.2-.1h.1v.6c-.1 0-.1-.1-.2-.1s-.1 0-.2.1c0 .1-.1.2-.1.3v1.1h-.6v-2h.5l.2.3zm1.4-.1l.2-.2c.1 0 .1-.1.2-.1s.3.1.4.2c.1.1.1.3.1.4v1.4h-.6v-1.3c0-.1 0-.2-.1-.2s-.1 0-.1.1v1.4h-.6v-2h.5v.3zm1.3-.1c.2-.1.4-.2.6-.2.1 0 .3 0 .4.1.1.1.2.1.3.3.1.1.1.3.1.5v.7c0 .2 0 .4.1.6H45c0-.1 0-.1-.1-.2l-.2.2c-.1 0-.1.1-.2.1s-.3-.1-.4-.2c-.1-.1-.2-.3-.2-.5 0-.4.3-.6.9-.7 0-.1 0-.1-.1-.2-.1 0-.1-.1-.2-.1s-.3.1-.4.2v-.6zm.7.9c-.2 0-.4.1-.4.3 0 .1 0 .1.1.2l.1.1c.1 0 .1 0 .1-.1v-.5h.1zm2.3-.7c.1-.1.1-.2.2-.2.1-.1.2-.1.3-.1.2 0 .3.1.4.2.1.1.1.3.1.5v1.4h-.6V48c0-.2 0-.2-.1-.2s-.1 0-.1.1v1.4h-.6V48c0-.2 0-.2-.1-.2 0 0-.1 0-.1.1v1.4h-.6v-2h.5l.1.2c.1-.1.1-.2.2-.2s.1-.1.2-.1c0 0 .1.1.2.3zm2.8 1.5c-.2.1-.4.2-.6.2-.3 0-.5-.1-.6-.3-.2-.2-.2-.4-.2-.8 0-.3.1-.5.2-.8.2-.2.4-.3.6-.3.2 0 .4.1.5.3.1.2.2.4.2.7v.2h-1c0 .1.1.2.1.3.1.1.2.1.3.1.1 0 .2 0 .2-.1.1 0 .2-.1.3-.2v.7zm-.5-1.1c0-.2 0-.2-.1-.3 0-.1-.1-.1-.2-.1s-.1 0-.2.1c0 .1-.1.2-.1.3h.6zm1.4-.5l.2-.2c.1 0 .1-.1.2-.1s.3.1.4.2c.1.1.1.3.1.4v1.4h-.6v-1.3c0-.1 0-.2-.1-.2s-.1 0-.1.1v1.4h-.6v-2h.5v.3zm1.4-.8h.5v.6h.3v.5h-.3v.8c0 .1 0 .2.1.2 0 0 .1 0 .1-.1v.5c-.1 0-.2.1-.3.1-.2 0-.3 0-.4-.1-.1-.1-.1-.3-.1-.5v-1h-.2v-.5h.3v-.5zm1 1.9c.2.2.4.3.5.3h.1l.1-.1v-.1s-.1-.1-.2-.1c-.2-.1-.3-.2-.4-.3-.1-.1-.1-.2-.1-.3 0-.2.1-.3.2-.5.1-.1.3-.2.5-.2s.3 0 .5.1v.6c-.1-.1-.3-.2-.4-.2h-.1v.1c0 .1.1.1.2.2.3.1.5.3.5.6 0 .2-.1.4-.2.5-.1.1-.3.2-.5.2s-.4-.1-.6-.2l-.1-.6zM42.8 35.4h-3.3c-.2 0-.3.1-.3.3v.9c0 .3.3.6.8.6h2.4c.4 0 .8-.3.8-.6v-.9c-.1-.2-.3-.3-.4-.3zm-3.1 1.1h2.8v.3h-2.8v-.3zm-9-1.1l.6-1-3.9-6.2c-.1-.1-.3-.2-.5-.2h-.2c-.3.1-.4.3-.3.6l4.3 6.8zM42 40.9c-.1-.4-.6-.6-1-.5l-5.5.7-1.5-2.5-1-1.5-.6 1 2.9 4.6c.2.3.6.6 1.1.6l4.3-.3c.3 0 .6-.1.9-.3l.2-.1c.3-.1.3-.4.3-.6.1-.1-.1-1.1-.1-1.1z"/>
  <path d="M37.3 28.6c.1-.2 0-.5-.3-.6h-.2c-.2 0-.4.1-.5.2l-4.5 7.1-.6 1-3.1 4.8-5.5-.7h-.2c-.4 0-.8.2-.8.6l-.2 1c0 .2.1.5.3.6l.3.1c.3.2.6.3.9.3l4.3.3c.5 0 1-.2 1.2-.6l3.5-5.5.6-1 4.8-7.6zM22.5 41.3c.1-.2.3-.3.6-.3 1 .1 3.1.3 3.3.3.1 0-2.1.3-3.3.4-.4.2-.7 0-.6-.4 0 .1 0 .1 0 0 0 .1 0 0 0 0z"/>
</svg>
